<svg width="16" height="16" viewBox="0 0 16 16" fill="none" xmlns="http://www.w3.org/2000/svg">
<path d="M11.5844 0H4.4153C1.98071 0 0 1.9808 0 4.4154V11.5845C0 14.0192 1.98071 15.9999 4.4153 15.9999H11.5844C14.0192 15.9999 15.9999 14.0191 15.9999 11.5845V4.4154C16 1.9808 14.0192 0 11.5844 0ZM14.5804 11.5845C14.5804 13.2364 13.2364 14.5803 11.5845 14.5803H4.4153C2.76347 14.5804 1.41959 13.2364 1.41959 11.5845V4.4154C1.41959 2.76356 2.76347 1.41959 4.4153 1.41959H11.5844C13.2363 1.41959 14.5803 2.76356 14.5803 4.4154V11.5845H14.5804Z" fill="white"/>
<path d="M8.12277 4C5.84944 4 4 5.84944 4 8.12277C4 10.396 5.84944 12.2454 8.12277 12.2454C10.3961 12.2454 12.2455 10.396 12.2455 8.12277C12.2455 5.84944 10.3961 4 8.12277 4ZM8.12277 10.8257C6.6323 10.8257 5.41959 9.61315 5.41959 8.12268C5.41959 6.63211 6.6322 5.41949 8.12277 5.41949C9.61334 5.41949 10.826 6.63211 10.826 8.12268C10.826 9.61315 9.61324 10.8257 8.12277 10.8257Z" fill="white"/>
<path d="M12.2955 2.67383C12.022 2.67383 11.7534 2.78456 11.5602 2.97857C11.3661 3.17163 11.2545 3.44041 11.2545 3.71486C11.2545 3.98846 11.3662 4.25714 11.5602 4.45115C11.7533 4.64422 12.022 4.75589 12.2955 4.75589C12.57 4.75589 12.8378 4.64422 13.0318 4.45115C13.2259 4.25714 13.3366 3.98837 13.3366 3.71486C13.3366 3.44041 13.2259 3.17163 13.0318 2.97857C12.8388 2.78456 12.57 2.67383 12.2955 2.67383Z" fill="white"/>
</svg>
