<svg width="219" height="58" viewBox="0 0 219 58" fill="none" xmlns="http://www.w3.org/2000/svg">
<path d="M18.9 13.532C18.3027 13.6813 17.78 13.756 17.332 13.756C16.9027 13.756 16.492 13.728 16.1 13.672C14.9987 14.456 13.6733 15.7347 12.124 17.508C14.3827 21.036 16.184 24.2 17.528 27H10.556C9.79067 25.3573 9.02533 23.8733 8.26 22.548C6.188 25.4973 4.592 28.1107 3.472 30.388C3.09867 30.4813 2.548 30.6027 1.82 30.752C1.092 30.92 0.569333 31.0413 0.252 31.116C1.82 28.316 4.16267 24.9187 7.28 20.924C5.35733 17.9187 3.18267 15.2773 0.756 13H9.464C9.89333 13.9147 10.4907 14.96 11.256 16.136C11.4053 15.968 11.6947 15.632 12.124 15.128C12.5533 14.6053 12.8893 14.2133 13.132 13.952C13.3747 13.6907 13.7013 13.3733 14.112 13C14.8587 12.272 15.6427 11.7587 16.464 11.46C16.7813 11.3667 17.4253 11.2733 18.396 11.18C19.3667 11.068 20.0667 10.872 20.496 10.592C20.048 11.6187 19.516 12.5987 18.9 13.532ZM36.6559 26.776V27H30.1599C30.0853 25.936 29.9266 24.8347 29.6839 23.696C28.5266 24.872 27.2199 25.9733 25.7639 27H19.2399C19.1093 26.2347 19.0439 25.2267 19.0439 23.976C19.0439 22.7067 19.2306 21.4373 19.6039 20.168C20.9479 19.776 22.2359 19.1133 23.4679 18.18C24.7186 17.2467 25.6239 16.2387 26.1839 15.156C25.6799 14.372 25.1479 13.6533 24.5879 13H33.8839C35.7319 17.0133 36.6559 21.6053 36.6559 26.776ZM29.1799 21.652C28.6946 19.9907 28.0599 18.4227 27.2759 16.948C26.3986 19.524 25.8946 21.96 25.7639 24.256C27.1079 23.5653 28.2466 22.6973 29.1799 21.652ZM57.1968 14.288C57.1968 13.784 57.1221 13.3547 56.9728 13H64.9528C65.6248 14.792 66.1194 16.9853 66.4368 19.58C66.7728 22.1747 66.9501 24.648 66.9688 27H60.5008C60.3701 23.64 59.8194 20.4013 58.8488 17.284C57.2248 20.4573 56.3474 23.696 56.2168 27H50.7288C50.2434 23.3413 49.3101 20.0933 47.9288 17.256C46.9208 19.6267 46.4168 21.8293 46.4168 23.864C46.4168 24.9653 46.5474 26.0107 46.8088 27H40.0048C39.8741 26.2347 39.8088 25.2267 39.8088 23.976C39.8088 22.7067 39.9954 21.4373 40.3688 20.168C41.6941 19.776 42.9634 19.132 44.1768 18.236C45.4088 17.34 46.3141 16.36 46.8928 15.296C46.4074 14.4933 45.8941 13.728 45.3528 13H54.2008C54.9101 14.9227 55.4421 17.0133 55.7968 19.272C56.7301 17.536 57.1968 15.8747 57.1968 14.288ZM79.87 18.628L82.502 18.796C82.7633 18.796 82.9593 18.7867 83.09 18.768L81.774 21.232H81.522C81.1673 21.232 80.6633 21.1387 80.01 20.952C79.3567 20.7467 78.89 20.644 78.61 20.644C77.8447 20.644 77.238 21.1387 76.79 22.128C76.7153 23.0427 76.6593 23.9573 76.622 24.872C77.5927 25.0587 78.358 25.152 78.918 25.152H79.17C79.9727 25.152 80.6073 24.9747 81.074 24.62C81.5593 24.2653 81.9047 23.6307 82.11 22.716L85.47 22.856C85.19 24.4613 84.8167 25.8427 84.35 27H70.602C70.2287 24.48 70.042 21.9787 70.042 19.496C70.042 17.0133 70.1727 14.848 70.434 13H85.442C85.106 15.016 84.8073 16.4347 84.546 17.256C83.4447 17.312 82.4367 17.3493 81.522 17.368C81.6713 16.9387 81.746 16.5373 81.746 16.164C81.746 15.268 81.074 14.82 79.73 14.82C79.226 14.82 78.666 14.876 78.05 14.988C77.6393 16.7613 77.322 18.32 77.098 19.664C77.8447 18.9733 78.7687 18.628 79.87 18.628ZM105.655 27H99.1872C98.8512 23.248 97.8992 19.916 96.3312 17.004C95.3232 19.3 94.8192 21.4093 94.8192 23.332C94.8192 24.6387 95.0618 25.8613 95.5472 27H88.2672C88.1365 26.2347 88.0712 25.208 88.0712 23.92C88.0712 22.632 88.2485 21.3813 88.6032 20.168C89.9658 19.776 91.2725 19.1133 92.5232 18.18C93.7738 17.228 94.6698 16.22 95.2112 15.156C94.8005 14.5027 94.2685 13.784 93.6152 13H102.883C104.731 16.976 105.655 21.6427 105.655 27ZM118.397 18.628L121.029 18.796C121.291 18.796 121.487 18.7867 121.617 18.768L120.301 21.232H120.049C119.695 21.232 119.191 21.1387 118.537 20.952C117.884 20.7467 117.417 20.644 117.137 20.644C116.372 20.644 115.765 21.1387 115.317 22.128C115.243 23.0427 115.187 23.9573 115.149 24.872C116.12 25.0587 116.885 25.152 117.445 25.152H117.697C118.5 25.152 119.135 24.9747 119.601 24.62C120.087 24.2653 120.432 23.6307 120.637 22.716L123.997 22.856C123.717 24.4613 123.344 25.8427 122.877 27H109.129C108.756 24.48 108.569 21.9787 108.569 19.496C108.569 17.0133 108.7 14.848 108.961 13H123.969C123.633 15.016 123.335 16.4347 123.073 17.256C121.972 17.312 120.964 17.3493 120.049 17.368C120.199 16.9387 120.273 16.5373 120.273 16.164C120.273 15.268 119.601 14.82 118.257 14.82C117.753 14.82 117.193 14.876 116.577 14.988C116.167 16.7613 115.849 18.32 115.625 19.664C116.372 18.9733 117.296 18.628 118.397 18.628ZM129.007 26.916C127.345 24.788 126.515 22.604 126.515 20.364C126.515 18.124 127.448 16.2293 129.315 14.68C131.181 13.1307 133.571 12.356 136.483 12.356C138.032 12.356 139.572 12.5893 141.103 13.056C142.447 14.7547 143.119 16.5747 143.119 18.516C143.119 20.9613 142.12 23.0893 140.123 24.9C138.125 26.7107 135.708 27.616 132.871 27.616C131.657 27.616 130.369 27.3827 129.007 26.916ZM133.263 14.792C132.609 15.912 132.283 17.228 132.283 18.74C132.283 20.252 132.609 21.652 133.263 22.94C133.935 24.2093 134.849 25.124 136.007 25.684C136.884 24.564 137.323 23.2667 137.323 21.792C137.323 20.3173 136.959 18.9453 136.231 17.676C135.521 16.4067 134.532 15.4453 133.263 14.792ZM163.564 15.324C163.564 18.9827 163.21 22.8747 162.5 27H155.808C156.107 24.7973 156.303 22.4267 156.396 19.888C155.426 19.2907 154.343 18.9267 153.148 18.796C153.036 21.54 152.738 24.2747 152.252 27H145.896C146.139 25.1707 146.26 22.9867 146.26 20.448C146.26 17.8907 146.092 15.408 145.756 13H153.148C153.186 13.7653 153.204 14.904 153.204 16.416C154.287 16.752 155.36 17.2093 156.424 17.788C156.424 16.052 156.359 14.456 156.228 13H163.508C163.546 14.0453 163.564 14.82 163.564 15.324Z" fill="white"/>
<path d="M132.216 33.82C131.731 36.7693 131.488 39.1773 131.488 41.044C131.488 42.9107 131.563 44.5627 131.712 46H125.608C124.973 43.032 124.656 39.84 124.656 36.424C124.656 35.8453 124.675 34.9773 124.712 33.82C123.125 34.2867 122.155 35.36 121.8 37.04L119.028 36.872L120.036 32H138.656C138.283 34.0533 137.853 35.7333 137.368 37.04L134.54 36.872C134.615 36.5733 134.652 36.2747 134.652 35.976C134.652 35.248 134.428 34.7067 133.98 34.352C133.532 33.9973 132.944 33.82 132.216 33.82ZM158.062 45.776V46H151.566C151.492 44.936 151.333 43.8347 151.09 42.696C149.933 43.872 148.626 44.9733 147.17 46H140.646C140.516 45.2347 140.45 44.2267 140.45 42.976C140.45 41.7067 140.637 40.4373 141.01 39.168C142.354 38.776 143.642 38.1133 144.874 37.18C146.125 36.2467 147.03 35.2387 147.59 34.156C147.086 33.372 146.554 32.6533 145.994 32H155.29C157.138 36.0133 158.062 40.6053 158.062 45.776ZM150.586 40.652C150.101 38.9907 149.466 37.4227 148.682 35.948C147.805 38.524 147.301 40.96 147.17 43.256C148.514 42.5653 149.653 41.6973 150.586 40.652ZM173.423 33.82C172.938 36.7693 172.695 39.1773 172.695 41.044C172.695 42.9107 172.77 44.5627 172.919 46H166.815C166.18 43.032 165.863 39.84 165.863 36.424C165.863 35.8453 165.882 34.9773 165.919 33.82C164.332 34.2867 163.362 35.36 163.007 37.04L160.235 36.872L161.243 32H179.863C179.49 34.0533 179.06 35.7333 178.575 37.04L175.747 36.872C175.822 36.5733 175.859 36.2747 175.859 35.976C175.859 35.248 175.635 34.7067 175.187 34.352C174.739 33.9973 174.151 33.82 173.423 33.82ZM199.661 32.532C199.027 32.6813 198.495 32.756 198.065 32.756C197.636 32.756 197.225 32.728 196.833 32.672C196.255 33.3627 195.732 34.2867 195.265 35.444C194.799 36.6013 194.444 37.6373 194.201 38.552C193.977 39.4667 193.725 40.5867 193.445 41.912C192.027 48.6693 190.608 53.4667 189.189 56.304C188.256 56.584 187.099 56.8547 185.717 57.116C187.584 53.924 189.096 50.2187 190.253 46H184.457C182.983 41.2213 182.217 36.5547 182.161 32H190.337C189.945 33.736 189.749 35.584 189.749 37.544C189.749 39.4853 190.067 41.7067 190.701 44.208C190.832 43.704 191.056 42.8267 191.373 41.576C191.691 40.3067 191.924 39.4013 192.073 38.86C192.223 38.3187 192.447 37.5533 192.745 36.564C193.063 35.5747 193.343 34.8373 193.585 34.352C193.847 33.848 194.164 33.288 194.537 32.672C195.209 31.5707 196.096 30.824 197.197 30.432C197.515 30.3387 198.159 30.2453 199.129 30.152C200.1 30.04 200.8 29.844 201.229 29.564C200.725 30.7213 200.203 31.7107 199.661 32.532Z" fill="white"/>
<path d="M213.582 22.3229H211.947V20.7481C211.944 17.5553 210.674 14.4943 208.416 12.2366C206.159 9.97892 203.098 8.70893 199.905 8.70524H184.561V6.55368C184.561 6.35788 184.483 6.17009 184.344 6.03164C184.206 5.89318 184.018 5.8154 183.822 5.8154C180.122 5.81964 176.575 7.29123 173.959 9.90737C171.342 12.5235 169.87 16.0706 169.865 19.7706C169.865 19.9664 169.943 20.1542 170.082 20.2926C170.22 20.4311 170.408 20.5089 170.604 20.5089H172.119C172.606 21.2233 173.224 21.8389 173.94 22.3229H168.231C168.035 22.3229 167.847 22.4007 167.709 22.5392C167.57 22.6776 167.492 22.8654 167.492 23.0612V26.0835C167.492 26.2793 167.57 26.4671 167.709 26.6056C167.847 26.744 168.035 26.8218 168.231 26.8218H188.017L190.181 30.1918C190.248 30.2955 190.34 30.3807 190.449 30.4396C190.557 30.4986 190.679 30.5294 190.802 30.5293H192.494C192.615 30.5292 192.735 30.4992 192.842 30.442C192.949 30.3847 193.04 30.3019 193.108 30.201C193.175 30.1 193.216 29.984 193.228 29.8632C193.24 29.7423 193.222 29.6205 193.176 29.5083L192.061 26.8201H207.164C207.188 26.9811 207.2 27.1435 207.201 27.3061V34.6594C205.768 34.145 204.208 34.1006 202.747 34.5327C201.287 34.9648 200.002 35.8509 199.079 37.0624C198.156 38.274 197.644 39.748 197.615 41.2708C197.586 42.7935 198.044 44.2857 198.921 45.531C199.797 46.7763 201.048 47.7099 202.491 48.1964C203.934 48.6829 205.495 48.697 206.947 48.2366C208.399 47.7762 209.666 46.8654 210.565 45.6361C211.464 44.4069 211.948 42.9231 211.947 41.4001V26.8218H213.582C213.778 26.8218 213.966 26.744 214.104 26.6056C214.243 26.4671 214.32 26.2793 214.32 26.0835V23.0612C214.32 22.8654 214.243 22.6776 214.104 22.5392C213.966 22.4007 213.778 22.3229 213.582 22.3229ZM181.898 16.1391C181.253 16.1396 180.625 15.9306 180.109 15.5437C179.593 15.1567 179.217 14.6127 179.037 13.9934C178.857 13.3741 178.883 12.7132 179.111 12.1099C179.339 11.5066 179.757 10.9938 180.301 10.6484C180.216 11.2083 180.266 11.7806 180.446 12.3174C180.627 12.8543 180.933 13.3402 181.34 13.7347C181.746 14.1292 182.241 14.4208 182.783 14.5853C183.325 14.7498 183.898 14.7823 184.455 14.6803C184.192 15.1243 183.818 15.4922 183.369 15.7479C182.921 16.0037 182.414 16.1385 181.898 16.1391ZM184.868 12.9784C184.551 13.1646 184.19 13.2625 183.823 13.2619C183.269 13.2612 182.739 13.0411 182.347 12.6498C181.956 12.2585 181.736 11.7279 181.735 11.1745C181.735 10.8285 181.822 10.4881 181.988 10.1848C182.73 10.2082 183.437 10.5077 183.97 11.0248C184.502 11.5419 184.823 12.2391 184.868 12.9801V12.9784ZM183.084 7.31179V8.87273C182.422 8.68694 181.725 8.65703 181.049 8.78533C180.374 8.91363 179.737 9.19666 179.188 9.61226C178.64 10.0278 178.196 10.5647 177.89 11.1808C177.583 11.7969 177.424 12.4755 177.424 13.1634C177.424 13.8513 177.583 14.5299 177.89 15.146C178.196 15.7621 178.64 16.299 179.188 16.7146C179.737 17.1302 180.374 17.4132 181.049 17.5415C181.725 17.6698 182.422 17.6399 183.084 17.4541V19.0344H171.363C171.548 15.9859 172.841 13.1103 175.001 10.9506C177.16 8.79082 180.035 7.49643 183.084 7.31179ZM168.969 23.7995H183.83C183.746 24.0539 183.718 24.3232 183.745 24.5896C183.773 24.856 183.857 25.1135 183.991 25.3453H168.969V23.7995ZM187.307 21.2957L186.888 20.4941C186.823 20.3701 186.811 20.2255 186.853 20.092C186.895 19.9586 186.988 19.8473 187.112 19.7826C187.236 19.718 187.38 19.7052 187.514 19.7472C187.647 19.7891 187.759 19.8824 187.823 20.0064L188.667 21.6235C188.719 21.7221 188.738 21.8345 188.721 21.9445C188.705 22.0546 188.654 22.1566 188.576 22.236L186.116 24.7529C186.016 24.85 185.883 24.9051 185.744 24.9066C185.605 24.9082 185.471 24.8562 185.37 24.7614C185.32 24.713 185.281 24.6553 185.253 24.5917C185.226 24.528 185.212 24.4596 185.211 24.3904C185.21 24.3212 185.223 24.2525 185.249 24.1882C185.275 24.124 185.313 24.0654 185.361 24.0159L187.18 22.1555C187.29 22.044 187.361 21.9007 187.384 21.7462C187.406 21.5917 187.38 21.434 187.307 21.2957ZM190.274 26.3662L191.389 29.0544H191.205L189.041 25.6844C188.974 25.5807 188.882 25.4955 188.773 25.4366C188.665 25.3776 188.543 25.3468 188.42 25.3469H187.601L189.113 23.8012H198.374C198.29 24.0556 198.261 24.3249 198.289 24.5913C198.316 24.8577 198.4 25.1152 198.534 25.3469H190.954C190.833 25.347 190.713 25.377 190.606 25.4342C190.499 25.4915 190.408 25.5743 190.34 25.6752C190.273 25.7762 190.231 25.8922 190.22 26.013C190.208 26.1339 190.226 26.2557 190.272 26.3679L190.274 26.3662ZM201.849 21.2957L201.43 20.4941C201.365 20.3701 201.352 20.2255 201.394 20.092C201.436 19.9586 201.529 19.8473 201.653 19.7826C201.777 19.718 201.922 19.7052 202.056 19.7472C202.189 19.7891 202.3 19.8824 202.365 20.0064L203.209 21.6235C203.26 21.7221 203.279 21.8345 203.263 21.9445C203.247 22.0546 203.196 22.1566 203.118 22.236L200.657 24.7529C200.558 24.85 200.425 24.9051 200.286 24.9066C200.147 24.9082 200.013 24.8562 199.911 24.7614C199.862 24.713 199.822 24.6553 199.795 24.5917C199.768 24.528 199.753 24.4596 199.753 24.3904C199.752 24.3212 199.765 24.2525 199.79 24.1882C199.816 24.124 199.854 24.0654 199.903 24.0159L201.722 22.1555C201.831 22.044 201.902 21.9007 201.925 21.7462C201.948 21.5917 201.921 21.434 201.849 21.2957ZM202.142 25.3457L203.653 23.7999H203.693C204.267 23.8001 204.832 23.9411 205.339 24.2106C205.846 24.4801 206.279 24.8699 206.6 25.3457H202.142ZM199.08 41.3989C199.079 40.5111 199.285 39.6353 199.682 38.8414C200.079 38.0474 200.657 37.3574 201.368 36.8262C202.08 36.2951 202.905 35.9376 203.779 35.7824C204.653 35.6271 205.552 35.6783 206.402 35.9319C207.253 36.1855 208.033 36.6345 208.679 37.243C209.326 37.8515 209.821 38.6027 210.125 39.4366C210.43 40.2706 210.535 41.1641 210.433 42.046C210.331 42.9278 210.024 43.7736 209.536 44.5157C209.519 44.5347 209.502 44.5547 209.487 44.5756C209.211 44.9853 208.853 45.3333 208.436 45.5974C208.019 45.8616 207.552 46.0361 207.064 46.11C206.575 46.1839 206.077 46.1555 205.601 46.0267C205.124 45.8978 204.679 45.6713 204.295 45.3614C203.911 45.0516 203.595 44.6653 203.368 44.2269C203.14 43.7886 203.007 43.3078 202.975 42.8151C202.944 42.3224 203.015 41.8285 203.185 41.3648C203.354 40.9011 203.618 40.4777 203.96 40.1214C203.897 40.7027 204.012 41.2893 204.29 41.8039C204.567 42.3184 204.995 42.7366 205.515 43.0031C206.035 43.2697 206.624 43.3722 207.204 43.2969C207.784 43.2217 208.327 42.9723 208.762 42.5817C209.197 42.1911 209.504 41.6777 209.641 41.1094C209.778 40.541 209.739 39.9445 209.53 39.3985C209.321 38.8525 208.951 38.3829 208.469 38.0516C207.988 37.7203 207.417 37.5429 206.832 37.5429C206.765 37.5429 206.698 37.5484 206.632 37.5531C206.598 37.5473 206.565 37.544 206.531 37.5429C205.399 37.542 204.3 37.9221 203.411 38.622C202.522 39.3218 201.894 40.3008 201.629 41.4009C201.364 42.5011 201.478 43.6584 201.951 44.6864C202.424 45.7143 203.23 46.553 204.238 47.0672C202.827 46.932 201.518 46.2766 200.565 45.2287C199.611 44.1808 199.082 42.8156 199.08 41.3989ZM206.832 39.0195C207.112 39.0196 207.385 39.1025 207.617 39.2578C207.849 39.4131 208.03 39.6338 208.137 39.892C208.244 40.1501 208.272 40.4342 208.217 40.7082C208.163 40.9823 208.028 41.234 207.831 41.4315C207.633 41.6291 207.381 41.7636 207.107 41.8181C206.833 41.8726 206.549 41.8446 206.291 41.7376C206.033 41.6307 205.812 41.4496 205.657 41.2173C205.502 40.9849 205.419 40.7118 205.419 40.4324C205.419 40.0577 205.568 39.6984 205.833 39.4335C206.098 39.1686 206.457 39.0197 206.832 39.0195ZM208.678 35.3914V27.3078C208.677 26.8447 208.611 26.3841 208.482 25.9393C208.482 25.9334 208.479 25.9274 208.477 25.9215C208.222 25.0455 207.732 24.256 207.06 23.6388C206.388 23.0215 205.56 22.6 204.665 22.42C204.809 21.9259 204.756 21.3954 204.518 20.9392L203.674 19.3221C203.428 18.8509 203.005 18.4967 202.498 18.3373C201.991 18.178 201.441 18.2266 200.97 18.4725C200.499 18.7184 200.145 19.1414 199.985 19.6484C199.826 20.1555 199.875 20.7051 200.121 21.1763L200.292 21.5045L199.49 22.3234H190.147C190.259 21.8567 190.199 21.3652 189.978 20.9392L189.134 19.3221C188.889 18.8509 188.466 18.4967 187.959 18.3373C187.452 18.178 186.902 18.2266 186.431 18.4725C185.959 18.7184 185.605 19.1414 185.446 19.6484C185.287 20.1555 185.335 20.7051 185.581 21.1763L185.752 21.5045L184.951 22.3234H179.182C176.482 22.3234 174.895 21.3299 174.04 20.5093H183.822C184.018 20.5093 184.206 20.4315 184.344 20.2931C184.483 20.1546 184.561 19.9668 184.561 19.771V16.7255C185.058 16.3565 185.473 15.8874 185.778 15.3483C186.083 14.8093 186.272 14.2123 186.332 13.5958C186.393 12.9793 186.323 12.357 186.128 11.769C185.934 11.181 185.618 10.6403 185.201 10.1818H199.905C202.706 10.185 205.392 11.2993 207.373 13.2801C209.353 15.2608 210.468 17.9464 210.471 20.7477V37.0574C209.972 36.4036 209.366 35.8397 208.678 35.3901V35.3914ZM212.844 25.3453H211.947V23.7995H212.844V25.3453Z" fill="url(#paint0_linear)"/>
<path d="M199.277 10.4763H192.984C192.788 10.4763 192.6 10.5541 192.462 10.6926C192.324 10.831 192.246 11.0188 192.246 11.2146C192.246 11.4104 192.324 11.5982 192.462 11.7366C192.6 11.8751 192.788 11.9529 192.984 11.9529H199.277C199.473 11.9529 199.661 11.8751 199.799 11.7366C199.938 11.5982 200.015 11.4104 200.015 11.2146C200.015 11.0188 199.938 10.831 199.799 10.6926C199.661 10.5541 199.473 10.4763 199.277 10.4763Z" fill="#FF307A"/>
<path d="M190.822 10.4763H190.559C190.462 10.4763 190.366 10.4954 190.277 10.5325C190.187 10.5696 190.106 10.624 190.037 10.6926C189.968 10.7611 189.914 10.8425 189.877 10.9321C189.84 11.0216 189.821 11.1176 189.821 11.2146C189.821 11.3116 189.84 11.4076 189.877 11.4971C189.914 11.5867 189.968 11.6681 190.037 11.7366C190.106 11.8052 190.187 11.8596 190.277 11.8967C190.366 11.9338 190.462 11.9529 190.559 11.9529H190.822C191.018 11.9529 191.206 11.8751 191.344 11.7366C191.483 11.5982 191.561 11.4104 191.561 11.2146C191.561 11.0188 191.483 10.831 191.344 10.6926C191.206 10.5541 191.018 10.4763 190.822 10.4763Z" fill="#FF307A"/>
<defs>
<linearGradient id="paint0_linear" x1="190.906" y1="5.8154" x2="190.906" y2="48.5718" gradientUnits="userSpaceOnUse">
<stop stop-color="#FF307A"/>
<stop offset="1" stop-color="#D66526"/>
</linearGradient>
</defs>
</svg>
