<svg width="16" height="16" viewBox="0 0 16 16" fill="none" xmlns="http://www.w3.org/2000/svg">
<g clip-path="url(#clip0)">
<path d="M15.8572 11.5782C15.8142 11.5062 15.5482 10.9282 14.2681 9.7401C12.928 8.49601 13.1081 8.69802 14.7222 6.54686C15.7052 5.23677 16.0983 4.43671 15.9753 4.09468C15.8582 3.76866 15.1352 3.85466 15.1352 3.85466L12.731 3.86866C12.731 3.86866 12.553 3.84466 12.42 3.92367C12.291 4.00167 12.208 4.18169 12.208 4.18169C12.208 4.18169 11.827 5.19576 11.3189 6.05783C10.2478 7.87696 9.81881 7.97297 9.6438 7.85996C9.23677 7.59694 9.33878 6.80188 9.33878 6.23784C9.33878 4.47471 9.6058 3.73965 8.81774 3.54964C8.55572 3.48664 8.36371 3.44463 7.69466 3.43763C6.8366 3.42863 6.10954 3.44063 5.69851 3.64165C5.42449 3.77566 5.21348 4.07468 5.34249 4.09168C5.5015 4.11268 5.86153 4.18869 6.05254 4.44871C6.29956 4.78373 6.29056 5.53779 6.29056 5.53779C6.29056 5.53779 6.43257 7.61294 5.95953 7.87096C5.63451 8.04797 5.18948 7.68695 4.23441 6.03582C3.74537 5.19076 3.37535 4.25569 3.37535 4.25569C3.37535 4.25569 3.30434 4.08168 3.17733 3.98867C3.02332 3.87566 2.8073 3.83966 2.8073 3.83966L0.521139 3.85366C0.521139 3.85366 0.178114 3.86366 0.052105 4.01267C-0.0599031 4.14568 0.0431043 4.4197 0.0431043 4.4197C0.0431043 4.4197 1.83323 8.60702 3.85938 10.7182C5.71851 12.6533 7.82867 12.5263 7.82867 12.5263H8.78474C8.78474 12.5263 9.07376 12.4943 9.22077 12.3353C9.35678 12.1893 9.35178 11.9153 9.35178 11.9153C9.35178 11.9153 9.33278 10.6322 9.92882 10.4432C10.5159 10.2571 11.2699 11.6832 12.069 12.2323C12.673 12.6473 13.1321 12.5563 13.1321 12.5563L15.2692 12.5263C15.2692 12.5263 16.3873 12.4573 15.8572 11.5782Z" fill="white"/>
</g>
<defs>
<clipPath id="clip0">
<rect width="16" height="16" fill="white"/>
</clipPath>
</defs>
</svg>
